<?xml version="1.0" encoding="utf-8"?>
<!-- Svg Vector Icons : http://www.onlinewebfonts.com/icon -->
<!DOCTYPE svg PUBLIC "-//W3C//DTD SVG 1.1//EN" "http://www.w3.org/Graphics/SVG/1.1/DTD/svg11.dtd">
<svg version="1.1" xmlns="http://www.w3.org/2000/svg" xmlns:xlink="http://www.w3.org/1999/xlink" x="0px" y="0px" viewBox="0 0 1000 1000" enable-background="new 0 0 1000 1000" xml:space="preserve">
<metadata> Svg Vector Icons : http://www.onlinewebfonts.com/icon </metadata>
<g><g transform="translate(0.000000,511.000000) scale(0.100000,-0.100000)"><path d="M4589,5004.2c-33.4-4.8-155.2-21.5-274.6-35.8c-281.8-33.4-783.3-162.4-1065-272.2C1506.1,4010.8,307.3,2434.7,123.4,579.3C-77.1-1441,1023.7-3403.9,2860.1-4297c1153.4-561.2,2471.6-649.5,3687.1-246c754.6,250.7,1361.2,625.7,1924.7,1189.2c630.4,632.8,1036.4,1322.9,1263.3,2153.9c136.1,494.3,167.2,745.1,164.8,1323c0,546.8-26.3,764.2-143.3,1229.8C9470,2480.1,8734.5,3516.5,7741.1,4187.5C7168,4574.4,6499.4,4837.1,5783,4958.8C5568.1,4997.1,4725.1,5028.1,4589,5004.2z M5472.5,4180.4c439.4-52.5,854.9-167.2,1215.5-334.3c112.2-52.5,205.4-97.9,212.5-102.7c7.2-9.6-105.1-248.3-128.9-274.6c-4.8-4.8-93.1,28.6-198.2,76.4c-580.3,265.1-1241.7,384.5-1845.9,329.5c-563.6-52.5-928.9-155.2-1416.1-396.4C2282.2,2967.3,1539.5,1993,1305.5,851.5c-86-422.7-86-1060.3,0-1480.6c21.5-105.1,40.6-200.6,43-212.5c2.4-14.3-62.1-43-145.7-64.5c-171.9-47.8-155.2-62.1-205.4,181.5C799.2,245,961.6,1281.3,1444,2124.3c195.8,341.5,389.2,592.2,685.4,888.3c334.3,334.3,628,544.5,1038.8,752.2c448.9,224.5,869.2,353.4,1349.2,415.5C4744.2,4209,5240.9,4211.4,5472.5,4180.4z M5577.6,3356.5c114.6-19.1,298.5-62.1,406-97.9c198.2-62.1,539.7-207.7,539.7-231.6c0-45.4-133.7-277-155.2-267.5c-597,267.5-945.7,341.5-1480.6,317.6c-988.6-40.6-1857.8-539.7-2388-1368.3c-186.3-289-329.5-644.8-408.3-1012.5c-59.7-272.2-59.7-909.8,0-1167.7c21.5-97.9,35.8-179.1,33.4-181.5c-19.1-16.7-288.9-86-296.1-76.4c-7.2,4.8-28.7,88.4-50.2,186.3c-31,136.1-40.6,291.3-43,666.3c0,432.2,7.2,515.8,57.3,716.4C2220.1,2575.6,3827.2,3645.5,5577.6,3356.5z M5565.7,2558.9c210.2-50.2,566-181.5,587.5-214.9c9.5-16.7-83.6-236.4-117-279.4c-2.4-2.4-95.5,31-205.4,76.4c-661.5,262.7-1420.9,193.4-1998.8-183.9c-604.2-394-967.1-1019.7-1003-1726.5c-7.2-152.8-2.4-331.9,14.3-429.8c14.3-90.7,28.7-186.3,33.4-212.5c4.8-35.8-23.9-52.5-145.7-86l-148.1-40.6l-14.3,62.1c-7.2,33.4-19.1,78.8-23.9,97.9c-4.8,19.1-19.1,133.7-31,255.5c-57.3,558.8,100.3,1170.1,427.5,1657.3c310.4,460.9,859.7,847.7,1411.3,1000.6C4737,2637.7,5190.8,2647.3,5565.7,2558.9z M5377,1398.4c210.1-59.7,406-176.7,573.1-343.9c265.1-265.1,391.6-570.7,391.6-943.3c0-816.7-706.9-1432.8-1514-1323c-544.5,76.4-988.6,477.6-1120,1010.1c-35.8,148.1-35.8,475.2,0,625.7c50.2,212.5,186.3,458.5,343.9,618.5C4405.1,1400.7,4897,1532.1,5377,1398.4z M9004.4,1023.5c90.7-379.7,124.2-974.3,71.6-1377.9c-86-692.5-339.1-1351.6-733.1-1910.4c-203-289-668.6-752.2-960-960c-1115.2-792.8-2591-976.7-3849.5-482.4c-195.8,76.4-396.4,167.2-422.7,191c-7.2,7.2,138.5,272.2,150.4,272.2c4.8,0,88.4-35.8,186.3-81.2c556.4-253.1,1198.8-367.7,1819.6-324.8c1110.4,78.8,2094.3,613.7,2765.3,1504.4c205.4,274.6,453.7,745.1,558.8,1060.3c203,620.9,246,1344.5,117,1960.5c-19.1,90.7-35.8,179.1-35.8,193.4c0,31,265.1,107.5,288.9,83.6C8970.9,1145.2,8990,1085.5,9004.4,1023.5z M8204.4,918.4c105.1-353.4,121.8-998.2,38.2-1423.2c-253.1-1296.7-1194-2271-2507.4-2598.1c-205.4-50.1-277-57.3-740.3-54.9c-480,0-527.7,4.8-752.2,64.5c-255.5,69.3-644.8,212.5-714,262.7c-40.6,28.7-38.2,38.2,23.9,167.2c38.2,76.4,78.8,131.3,93.1,126.6c687.7-303.3,1191.6-382.1,1810.1-288.9c1170.1,176.7,2139.6,1053.1,2431,2196.9c93.1,370.1,119.4,854.9,59.7,1208.3c-19.1,126.6-43,246-50.1,265.1c-11.9,26.3,19.1,45.4,112.2,74C8173.3,966.1,8190.1,966.1,8204.4,918.4z M7473.7,576.9c121.8-630.4-16.7-1306.2-382.1-1862.6c-128.9-195.8-365.4-446.6-566-599.4c-207.7-157.6-635.2-367.7-874-427.4c-539.7-138.5-1155.8-93.1-1623.8,117c-90.7,43-169.6,78.8-174.3,83.6c-7.2,7.2,105.1,246,126.6,272.2c4.8,4.8,71.6-19.1,150.4-52.5c370.1-155.2,831-217.3,1196.4-160c857.3,133.7,1557,749.8,1793.4,1578.5c66.9,226.9,90.7,704.5,47.8,950.4c-14.3,93.1-28.7,179.1-26.3,188.7c0,9.6,62.1,35.8,138.5,57.3C7440.3,765.5,7437.9,767.9,7473.7,576.9z"/><path d="M4846.9,292.7c-66.9-59.7-78.8-86-78.8-179.1c0-138.5,78.8-226.9,222.1-246c88.4-11.9,107.5-4.8,183.9,71.6c114.6,114.6,117,226.9,2.4,341.5C5069,388.2,4956.7,393,4846.9,292.7z"/></g></g>
</svg>