<svg id="Layer_1" data-name="Layer 1" xmlns="http://www.w3.org/2000/svg" xmlns:xlink="http://www.w3.org/1999/xlink" viewBox="0 0 244.5 33.4"><defs><linearGradient id="linear-gradient" y1="12.88" x2="29.36" y2="12.88" gradientUnits="userSpaceOnUse"><stop offset="0" stop-color="#3d92ef"/><stop offset="0.06" stop-color="#3c94ef"/><stop offset="0.57" stop-color="#35a3f2"/><stop offset="1" stop-color="#33a8f3"/></linearGradient><linearGradient id="linear-gradient-2" x1="6.32" y1="18.59" x2="11.37" y2="18.59" xlink:href="#linear-gradient"/><linearGradient id="linear-gradient-3" x1="9.35" y1="21.6" x2="14.36" y2="21.6" xlink:href="#linear-gradient"/><linearGradient id="linear-gradient-4" x1="12.34" y1="24.61" x2="17.36" y2="24.61" xlink:href="#linear-gradient"/><linearGradient id="linear-gradient-5" x1="15.33" y1="27.62" x2="20.36" y2="27.62" xlink:href="#linear-gradient"/><linearGradient id="linear-gradient-6" x1="10.83" y1="8.35" x2="33.55" y2="8.35" xlink:href="#linear-gradient"/></defs><title>Kaliandiundang.com</title><path d="M43.4,4.6h3.4V15.7l4.9-5H56l-5.7,5.7,6.4,9.3H53.1l-5-7.2-1.3,1.4v5.8H43.4Z" style="fill:#fff;stroke:#fff;stroke-linecap:round;stroke-linejoin:round;stroke-width:0.2055399864912033px"/><path d="M63.6,25.8c-4.1,0-7.2-3.2-7.2-7.7s3.2-7.6,7.9-7.6,7.8,2.7,7.8,7.2v8H68.7V23.5A6.2,6.2,0,0,1,63.6,25.8Zm5.1-7.6v-.4a4,4,0,0,0-4.3-4.3,4.3,4.3,0,0,0-4.5,4.6,4.3,4.3,0,0,0,4.3,4.6A4.4,4.4,0,0,0,68.7,18.2Z" style="fill:#fff;stroke:#fff;stroke-linecap:round;stroke-linejoin:round;stroke-width:0.2055399864912033px"/><path d="M74.5,4.6h3.3V25.7H74.5Z" style="fill:#fff;stroke:#fff;stroke-linecap:round;stroke-linejoin:round;stroke-width:0.2055399864912033px"/><path d="M82.3,5.1a2,2,0,0,1,2,2.1,2.1,2.1,0,0,1-2,2.2,2.1,2.1,0,0,1-2.1-2.2A2.1,2.1,0,0,1,82.3,5.1Zm-1.7,5.4h3.3V25.7H80.6Z" style="fill:#fff;stroke:#fff;stroke-linecap:round;stroke-linejoin:round;stroke-width:0.2055399864912033px"/><path d="M93.3,25.8c-4.1,0-7.2-3.2-7.2-7.7s3.2-7.6,7.9-7.6,7.8,2.7,7.8,7.2v8H98.4V23.5A6.2,6.2,0,0,1,93.3,25.8Zm5.1-7.6v-.4a4,4,0,0,0-4.3-4.3,4.3,4.3,0,0,0-4.5,4.6,4.3,4.3,0,0,0,4.3,4.6A4.4,4.4,0,0,0,98.4,18.2Z" style="fill:#fff;stroke:#fff;stroke-linecap:round;stroke-linejoin:round;stroke-width:0.2055399864912033px"/><path d="M104.2,25.7v-15h3.3v2a5.5,5.5,0,0,1,4.7-2.2c3.8,0,5.6,3,5.6,6.2v9h-3.4V17a3.2,3.2,0,0,0-3.2-3.5c-2,0-3.7,1.7-3.7,4.3v7.9Z" style="fill:#fff;stroke:#fff;stroke-linecap:round;stroke-linejoin:round;stroke-width:0.2055399864912033px"/><path d="M119.6,18a7.3,7.3,0,0,1,7.5-7.5,5.7,5.7,0,0,1,4.9,2.2v-8h3.4v21H133l-1-2.5a6.2,6.2,0,0,1-5.1,2.6C122.8,25.8,119.6,22.4,119.6,18Zm12.4.1v-.3a4,4,0,0,0-4.2-4.3,4.4,4.4,0,0,0-4.6,4.6,4.4,4.4,0,0,0,4.4,4.6A4.3,4.3,0,0,0,132,18.1Z" style="fill:#fff;stroke:#fff;stroke-linecap:round;stroke-linejoin:round;stroke-width:0.2055399864912033px"/><path d="M139.9,5.1a2,2,0,0,1,2,2.1,2.1,2.1,0,0,1-2,2.2,2.1,2.1,0,0,1-2.1-2.2A2.1,2.1,0,0,1,139.9,5.1Zm-1.7,5.4h3.3V25.7h-3.3Z" style="fill:#fff;stroke:#fff;stroke-linecap:round;stroke-linejoin:round;stroke-width:0.2055399864912033px"/><path d="M157.9,10.7v15h-3.3V23.6a5.6,5.6,0,0,1-4.7,2.3c-3.8,0-5.6-3-5.6-6.3V10.7h3.4v8.7a3.2,3.2,0,0,0,3.1,3.5c2.1,0,3.8-1.9,3.8-4.4V10.7Z" style="fill:#3d92ef;stroke:#3d92ef;stroke-linecap:round;stroke-linejoin:round;stroke-width:0.41106998920440674px"/><path d="M160.3,25.7v-15h3.4v2a5.5,5.5,0,0,1,4.7-2.2c3.8,0,5.6,3,5.6,6.2v9h-3.4V17a3.2,3.2,0,0,0-3.2-3.5c-2,0-3.7,1.7-3.7,4.3v7.9Z" style="fill:#3d92ef;stroke:#3d92ef;stroke-linecap:round;stroke-linejoin:round;stroke-width:0.41106998920440674px"/><path d="M175.8,18a7.3,7.3,0,0,1,7.5-7.5,5.9,5.9,0,0,1,4.9,2.2v-8h3.4v21h-2.4l-1-2.5a6.2,6.2,0,0,1-5.2,2.6C179,25.8,175.8,22.4,175.8,18Zm12.4.1v-.3a4,4,0,0,0-4.2-4.3,4.4,4.4,0,0,0-4.6,4.6,4.4,4.4,0,1,0,8.8,0Z" style="fill:#3d92ef;stroke:#3d92ef;stroke-linecap:round;stroke-linejoin:round;stroke-width:0.41106998920440674px"/><path d="M200.6,25.8c-4.2,0-7.2-3.2-7.2-7.7s3.1-7.6,7.9-7.6,7.7,2.7,7.7,7.2v8h-3.4V23.5A6,6,0,0,1,200.6,25.8Zm5-7.6v-.4a4,4,0,0,0-4.2-4.3,4.4,4.4,0,0,0-4.6,4.6,4.4,4.4,0,1,0,8.8.1Z" style="fill:#3d92ef;stroke:#3d92ef;stroke-linecap:round;stroke-linejoin:round;stroke-width:0.41106998920440674px"/><path d="M211.4,25.7v-15h3.4v2a5.4,5.4,0,0,1,4.6-2.2c3.8,0,5.6,3,5.6,6.2v9h-3.4V17a3.2,3.2,0,0,0-3.1-3.5c-2,0-3.7,1.7-3.7,4.3v7.9Z" style="fill:#3d92ef;stroke:#3d92ef;stroke-linecap:round;stroke-linejoin:round;stroke-width:0.41106998920440674px"/><path d="M229.1,25.9c.8,2,3.3,3.5,6.2,3.5s5.3-1.5,6.1-3.5l2.3,2a10.3,10.3,0,0,1-16.9,0Zm5.8-15.4h8.5v2.3h-2.5a7.5,7.5,0,0,1,1.9,5.2A7.9,7.9,0,0,1,227,18C227,13.6,230.1,10.5,234.9,10.5Zm4.3,7.5c0-2.6-1.5-4.5-4.3-4.5s-4.3,1.9-4.3,4.5,1.5,4.7,4.3,4.7S239.2,20.6,239.2,18Z" style="fill:#3d92ef;stroke:#3d92ef;stroke-linecap:round;stroke-linejoin:round;stroke-width:0.41106998920440674px"/><path d="M19.8,7.5c-.1-.1-.2-.1-.2-.2l-.3-.2-.2.2c-.1,0-.1.1-.2.2a15.9,15.9,0,0,0-1.3,1.3h-.1L14.4,12l-.6.5h0a3.3,3.3,0,0,1-1.6.5,2.9,2.9,0,0,1-2.6-1.6,2.7,2.7,0,0,1,.2-3l.2-.3h0l.3-.3,3.2-3.2h0L15.1,3l.2-.2.3-.3-.3-.3A9.6,9.6,0,0,0,9.6.2H8A9.6,9.6,0,0,0,.9,5.7a9.3,9.3,0,0,0,.5,9,12.5,12.5,0,0,0,2.6,3l.6.6.3.3.3-.4.3-.4c.9-.9,1.7-1.8,2.5-2.5l1.1-.7h.8a3,3,0,0,1,1.9.7l.5.5h0l5.5,5.5h0l.4.5h0L21,24.5h.1l.4.6.3.3.9-.9a.1.1,0,0,0,.1-.1h0l2.9-2.8h0l.3-.2h0l2.8-3h.1a1.4,1.4,0,0,0,.5-.9,1.4,1.4,0,0,0-.5-.9Z" style="fill:url(#linear-gradient)"/><path d="M10.8,18.5l.2-.2a1,1,0,0,0,0-1.6c-.1-.1-.2-.1-.2-.2a1.2,1.2,0,0,0-.9-.4,1,1,0,0,0-.8.4c-.8.8-1.6,1.5-2.3,2.3s-.6.9-.4,1.2.7,1,1.4,1.1H8l.5-.3Z" style="fill:url(#linear-gradient-2)"/><path d="M13.7,21.6c.5-.4.7-.7.7-1.1a2,2,0,0,0-.7-1.1,1.3,1.3,0,0,0-.8-.3.8.8,0,0,0-.7.3l-.3.2L9.7,21.9a1.3,1.3,0,0,0-.3.7H9.3a1.5,1.5,0,0,0,.6,1H10a.9.9,0,0,0,.8.4,1,1,0,0,0,.8-.4l.7-.7Z" style="fill:url(#linear-gradient-3)"/><path d="M17,24.3a.9.9,0,0,0,0-1.5l-.3-.4a1.3,1.3,0,0,0-.8-.3.9.9,0,0,0-.7.3l-.3.3-2.2,2.2h0c-.2.1-.3.5-.3.6h-.1c0,.5.3.7.7,1h.1a.9.9,0,0,0,.7.3,1.1,1.1,0,0,0,.7-.3Z" style="fill:url(#linear-gradient-4)"/><path d="M18.9,25.1h-.2l-.5.3L15.6,28a1,1,0,0,0,0,1.4l.2.2h.1a1.4,1.4,0,0,0,.9.5q.3,0,.9-.6l.7-.6,1.5-1.6c.5-.4.6-.8.4-1.2A1.9,1.9,0,0,0,18.9,25.1Z" style="fill:url(#linear-gradient-5)"/><path d="M33.4,8.1A8.9,8.9,0,0,0,26.9.7,11.8,11.8,0,0,0,23.8.2a8.8,8.8,0,0,0-6,2.4l-.6.5L15.8,4.5,14.6,5.8,11.4,9l-.3.3h0a1.2,1.2,0,0,0-.1,1.3,1.3,1.3,0,0,0,1.2.8l.7-.2H13l.3-.3,3.2-3.2,1.2-1.2a2.4,2.4,0,0,1,1.6-.8l.9.2.8.6,2,2c2.2,2.3,4.5,4.6,6.8,6.8l.7.9.3.4.3-.4A9.1,9.1,0,0,0,33.4,8.1Z" style="fill:url(#linear-gradient-6)"/></svg>